<svg version="1.1" id="Layer_1" xmlns="http://www.w3.org/2000/svg" xmlns:xlink="http://www.w3.org/1999/xlink" x="0px" y="0px" width="100%" viewBox="0 0 225 225" enable-background="new 0 0 225 225" xml:space="preserve">

<path fill="#F3C313" opacity="1.000000" stroke="none" d="
M148.727707,132.036453 
	C162.096680,155.500763 153.604187,181.741470 129.033386,192.889328 
	C115.378723,199.084503 97.579269,195.888107 86.557335,186.086868 
	C77.453056,177.990906 72.767143,167.762283 71.829239,156.176392 
	C71.212479,148.557648 73.105537,140.767349 77.433830,133.981537 
	C77.632339,133.670319 77.396584,133.082077 77.706375,132.317352 
	C80.377090,129.438812 82.704514,126.865791 85.330368,124.104736 
	C89.246902,121.383507 92.542847,118.030113 96.539383,116.460289 
	C113.098320,109.955994 128.393188,112.457497 142.055847,124.556572 
	C144.345474,127.258423 146.536591,129.647430 148.727707,132.036453 
z" data-index="1" style="visibility: visible; opacity: 1; fill: rgb(0, 0, 0);"></path>
<path fill="#0F1610" opacity="1.000000" stroke="none" d="
M149.037888,131.869415 
	C146.536591,129.647430 144.345474,127.258423 142.228363,124.249466 
	C146.472198,118.030334 150.509460,112.325150 154.866638,106.875748 
	C157.113846,104.065239 157.023941,101.913910 155.074661,98.919380 
	C146.217285,85.312340 137.608459,71.543465 128.912231,57.831535 
	C123.960068,50.023117 119.011780,42.212242 113.725510,33.871990 
	C110.950066,38.369316 108.610107,42.287949 106.148247,46.128441 
	C94.716125,63.962490 83.304878,81.810493 71.738228,99.557098 
	C69.979378,102.255684 70.069870,104.145721 72.019310,106.647705 
	C76.509445,112.410500 80.712433,118.397018 85.031937,124.292770 
	C82.704514,126.865791 80.377090,129.438812 77.723404,131.998581 
	C73.209244,126.066315 69.024002,120.145409 64.830353,114.230461 
	C64.257759,113.422829 63.707527,112.585388 63.038017,111.862640 
	C57.549522,105.937599 58.294357,100.744812 62.808632,93.957169 
	C78.908028,69.750175 94.185471,44.997036 109.820351,20.480154 
	C112.794304,15.816722 114.919739,15.795217 117.820442,20.395899 
	C134.394440,46.683189 150.858200,73.040230 167.510834,99.277466 
	C170.476715,103.950401 167.181641,106.938553 165.127533,109.980545 
	C160.122238,117.393028 154.638901,124.482712 149.037888,131.869415 
z" data-index="2" style="visibility: visible; opacity: 1;"></path>

<path fill="#0F1610" opacity="1.000000" stroke="none" d="
M122.607193,104.261139 
	C118.626106,109.074493 111.435616,110.700394 107.657829,107.923965 
	C102.718399,104.293770 102.273865,98.336426 104.935013,92.282990 
	C106.866180,87.890106 107.306656,82.762779 107.957970,77.902122 
	C109.522858,66.223679 110.808189,54.507912 112.255791,42.813328 
	C112.347649,42.071213 112.863411,41.381573 114.259117,40.611481 
	C114.783905,43.525841 115.455833,46.422562 115.807808,49.357643 
	C117.269791,61.549061 118.564835,73.760925 120.099747,85.942780 
	C120.382851,88.189636 121.850800,90.286011 122.141479,92.533386 
	C122.628578,96.299263 122.608604,100.130730 122.607193,104.261139 
z" data-index="4" style="visibility: visible; opacity: 1; fill: rgb(0, 0, 0);"></path>
</svg>