<?xml version="1.0" encoding="UTF-8"?>
<svg version="1.1" xmlns="http://www.w3.org/2000/svg" width="225" height="225">
<path d="M0 0 C4.40625264 1.75744367 5.94945964 5.48314242 8.28515625 9.4609375 C9.35244163 11.21510115 10.42016153 12.9690005 11.48828125 14.72265625 C12.29749023 16.0691626 12.29749023 16.0691626 13.12304688 17.44287109 C15.53315556 21.42514165 18.0355508 25.34698973 20.53515625 29.2734375 C25.7655726 37.54201491 30.95578143 45.83570779 36.12475586 54.14282227 C39.14798322 58.99586688 42.19241349 63.83100902 45.30859375 68.625 C45.86482422 69.48609375 46.42105469 70.3471875 46.99414062 71.234375 C48.03129278 72.83621293 49.07636407 74.43296305 50.13085938 76.0234375 C54.97265039 83.52652063 54.97265039 83.52652063 54.72265625 88.0859375 C53.21660111 91.09107888 51.26099614 93.67256618 49.22265625 96.3359375 C48.67617432 97.09173096 48.12969238 97.84752441 47.56665039 98.6262207 C45.22035309 101.85779549 42.84884604 104.9445816 40.1875 107.92578125 C38.11374715 110.32717906 36.69794414 112.06065126 35.72265625 115.0859375 C36.52647542 118.73021879 37.86053776 121.88431497 39.34765625 125.3046875 C43.02141893 134.38440149 41.48112307 145.513355 38.046875 154.40625 C34.34242497 161.90257072 28.51775866 168.2278298 21.72265625 173.0859375 C21.06265625 173.0859375 20.40265625 173.0859375 19.72265625 173.0859375 C19.39265625 173.7459375 19.06265625 174.4059375 18.72265625 175.0859375 C6.92496189 180.66877501 -2.63819199 180.26138183 -15.27734375 178.0859375 C-15.27734375 177.4259375 -15.27734375 176.7659375 -15.27734375 176.0859375 C-16.88609375 175.6528125 -16.88609375 175.6528125 -18.52734375 175.2109375 C-28.68388596 172.16397484 -33.2628884 165.13082873 -38.27734375 156.0859375 C-38.61551357 154.75382262 -38.95042445 153.42085797 -39.27734375 152.0859375 C-39.93734375 151.7559375 -40.59734375 151.4259375 -41.27734375 151.0859375 C-44.66870323 140.00407092 -42.57092809 129.88032181 -39.27734375 119.0859375 C-38.61734375 118.0959375 -37.95734375 117.1059375 -37.27734375 116.0859375 C-39.64184596 111.98849393 -42.3175367 108.16254628 -45.08984375 104.3359375 C-45.97840366 103.09153058 -46.86642499 101.84673892 -47.75390625 100.6015625 C-49.24806364 98.50996633 -50.76010925 96.44100752 -52.30078125 94.3828125 C-53.12449219 93.24585937 -53.12449219 93.24585937 -53.96484375 92.0859375 C-54.44308594 91.4465625 -54.92132813 90.8071875 -55.4140625 90.1484375 C-56.75540685 86.9437777 -56.31560927 85.43231745 -55.27734375 82.0859375 C-53.29889593 78.56048605 -51.05435721 75.23660692 -48.77734375 71.8984375 C-47.57660661 70.11517714 -46.37856277 68.33009947 -45.18359375 66.54296875 C-44.65056641 65.75897705 -44.11753906 64.97498535 -43.56835938 64.16723633 C-42.12861088 62.02530905 -42.12861088 62.02530905 -41.27734375 59.0859375 C-40.61734375 59.0859375 -39.95734375 59.0859375 -39.27734375 59.0859375 C-39.09171875 58.3021875 -38.90609375 57.5184375 -38.71484375 56.7109375 C-37.02415442 52.44746006 -34.64496238 49.19633027 -31.96484375 45.5 C-30.06325658 42.77967391 -28.62922939 40.10779953 -27.27734375 37.0859375 C-26.61734375 37.0859375 -25.95734375 37.0859375 -25.27734375 37.0859375 C-25.09171875 36.3021875 -24.90609375 35.5184375 -24.71484375 34.7109375 C-23.02415442 30.44746006 -20.64496238 27.19633027 -17.96484375 23.5 C-16.06325658 20.77967391 -14.62922939 18.10779953 -13.27734375 15.0859375 C-12.61734375 15.0859375 -11.95734375 15.0859375 -11.27734375 15.0859375 C-10.93703125 14.126875 -10.93703125 14.126875 -10.58984375 13.1484375 C-5.03624786 0.19004709 -5.03624786 0.19004709 0 0 Z M-1.27734375 17.0859375 C-2.04972912 18.24876155 -2.77102418 19.44550847 -3.47265625 20.65234375 C-4.16367432 21.82772705 -4.16367432 21.82772705 -4.86865234 23.02685547 C-5.37477051 23.89197754 -5.88088867 24.75709961 -6.40234375 25.6484375 C-10.97678458 33.37344978 -15.72214161 40.95817706 -20.65234375 48.4609375 C-21.27471924 49.4089624 -21.89709473 50.3569873 -22.53833008 51.33374023 C-23.80695796 53.26611866 -25.07559406 55.19849168 -26.34423828 57.13085938 C-29.62081123 62.13965439 -32.86214247 67.17054438 -36.08984375 72.2109375 C-36.97905518 73.58838135 -36.97905518 73.58838135 -37.88623047 74.99365234 C-38.43424316 75.85168457 -38.98225586 76.7097168 -39.546875 77.59375 C-40.26774292 78.71740967 -40.26774292 78.71740967 -41.00317383 79.86376953 C-42.99527337 83.32457664 -42.99527337 83.32457664 -44.27734375 87.0859375 C-43.17694787 89.61117157 -43.17694787 89.61117157 -41.19140625 91.94921875 C-40.50820312 92.83544922 -39.825 93.72167969 -39.12109375 94.63476562 C-38.38890625 95.54677734 -37.65671875 96.45878906 -36.90234375 97.3984375 C-36.17789063 98.32978516 -35.4534375 99.26113281 -34.70703125 100.22070312 C-32.91295329 102.5223163 -31.10302709 104.80937049 -29.27734375 107.0859375 C-28.53629395 106.5791748 -27.79524414 106.07241211 -27.03173828 105.55029297 C-16.00966758 98.10195216 -6.63458341 95.83629969 6.72265625 97.0859375 C12.67640023 98.36468621 17.85119636 100.20355902 22.72265625 103.8984375 C25.37229907 106.31888707 25.37229907 106.31888707 27.70361328 105.96386719 C31.82936654 104.1698879 34.04056011 99.88930486 36.59765625 96.3359375 C37.21640625 95.52382812 37.83515625 94.71171875 38.47265625 93.875 C39.04757813 93.08351563 39.6225 92.29203125 40.21484375 91.4765625 C40.7444873 90.75500977 41.27413086 90.03345703 41.81982422 89.29003906 C42.98754864 87.07308755 42.98754864 87.07308755 42.05883789 84.60327148 C40.74596926 82.12985865 39.37439852 79.76804828 37.8515625 77.41796875 C37.28211914 76.53254395 36.71267578 75.64711914 36.12597656 74.73486328 C35.51850586 73.79884277 34.91103516 72.86282227 34.28515625 71.8984375 C29.07097611 63.80956551 23.96913265 55.67229608 19.09985352 47.37036133 C18.02705088 45.57615934 16.88224056 43.82531397 15.72265625 42.0859375 C15.06265625 42.0859375 14.40265625 42.0859375 13.72265625 42.0859375 C13.53473511 41.20301025 13.53473511 41.20301025 13.34301758 40.30224609 C12.3545391 36.77079879 10.31705829 33.81079746 8.41015625 30.7109375 C8.01892578 30.06382813 7.62769531 29.41671875 7.22460938 28.75 C4.82062133 24.79518053 2.38028779 20.87584915 -0.27734375 17.0859375 C-0.60734375 17.0859375 -0.93734375 17.0859375 -1.27734375 17.0859375 Z " fill="#F3C312" transform="translate(113.27734375,15.9140625)"/>
<path d="M0 0 C4.40625264 1.75744367 5.94945964 5.48314242 8.28515625 9.4609375 C9.35244163 11.21510115 10.42016153 12.9690005 11.48828125 14.72265625 C12.29749023 16.0691626 12.29749023 16.0691626 13.12304688 17.44287109 C15.53315556 21.42514165 18.0355508 25.34698973 20.53515625 29.2734375 C25.7655726 37.54201491 30.95578143 45.83570779 36.12475586 54.14282227 C39.14798322 58.99586688 42.19241349 63.83100902 45.30859375 68.625 C45.86482422 69.48609375 46.42105469 70.3471875 46.99414062 71.234375 C48.03129278 72.83621293 49.07636407 74.43296305 50.13085938 76.0234375 C54.97265039 83.52652063 54.97265039 83.52652063 54.72265625 88.0859375 C53.21673284 91.09081603 51.26386315 93.67492973 49.22265625 96.3359375 C48.11318286 97.83977116 47.00380752 99.34367718 45.89453125 100.84765625 C45.35119141 101.57130371 44.80785156 102.29495117 44.24804688 103.04052734 C42.26203287 105.70359158 40.36377563 108.41725476 38.47265625 111.1484375 C37.93125 111.92316406 37.38984375 112.69789063 36.83203125 113.49609375 C36.4659375 114.02074219 36.09984375 114.54539062 35.72265625 115.0859375 C31.98245127 113.40441677 30.16131277 111.39554277 27.72265625 108.0859375 C29.53848255 102.12630245 33.81801618 97.68108176 37.73046875 92.96875 C38.26929688 92.28554687 38.808125 91.60234375 39.36328125 90.8984375 C39.86375977 90.28613281 40.36423828 89.67382812 40.87988281 89.04296875 C41.98263177 87.04335069 41.98263177 87.04335069 41.05566406 84.66088867 C39.71007831 82.06164088 38.2964989 79.56186392 36.75390625 77.07421875 C36.18285156 76.15189453 35.61179687 75.22957031 35.0234375 74.27929688 C34.42917969 73.32861328 33.83492188 72.37792969 33.22265625 71.3984375 C32.62839844 70.43615234 32.03414063 69.47386719 31.421875 68.48242188 C28.42880643 63.50784363 28.42880643 63.50784363 24.72265625 59.0859375 C23.90007719 57.68699352 23.11211401 56.26746986 22.34765625 54.8359375 C20.81337812 52.00867721 19.24385485 49.29131271 17.41015625 46.6484375 C15.72265625 44.0859375 15.72265625 44.0859375 15.72265625 42.0859375 C15.06265625 42.0859375 14.40265625 42.0859375 13.72265625 42.0859375 C12.74045998 40.31678275 11.76200266 38.54555181 10.78515625 36.7734375 C10.23988281 35.78730469 9.69460937 34.80117188 9.1328125 33.78515625 C7.72265625 31.0859375 7.72265625 31.0859375 6.72265625 28.0859375 C6.06265625 27.7559375 5.40265625 27.4259375 4.72265625 27.0859375 C3.79399461 25.59726474 2.92560289 24.07039044 2.09765625 22.5234375 C1.65164062 21.69714844 1.205625 20.87085937 0.74609375 20.01953125 C0.40835938 19.38144531 0.070625 18.74335937 -0.27734375 18.0859375 C-6.80659514 28.13298964 -13.28587922 38.2102978 -19.70458984 48.32836914 C-23.00161741 53.52247089 -26.31707994 58.70399018 -29.65625 63.87109375 C-30.39179048 65.0116494 -31.12722415 66.15227395 -31.86254883 67.29296875 C-33.27947614 69.48923005 -34.69975851 71.68333134 -36.1237793 73.875 C-36.76742432 74.87402344 -37.41106934 75.87304688 -38.07421875 76.90234375 C-38.64495117 77.78349854 -39.21568359 78.66465332 -39.80371094 79.57250977 C-41.92444826 83.16809396 -41.92444826 83.16809396 -43.27734375 87.0859375 C-42.25627549 89.44829451 -42.25627549 89.44829451 -40.375 91.58984375 C-39.73240234 92.41291016 -39.08980469 93.23597656 -38.42773438 94.08398438 C-37.39422852 95.35338867 -37.39422852 95.35338867 -36.33984375 96.6484375 C-34.98610099 98.32819922 -33.64307061 100.01666804 -32.3125 101.71484375 C-31.70801025 102.45806885 -31.10352051 103.20129395 -30.48071289 103.96704102 C-29.27734375 106.0859375 -29.27734375 106.0859375 -29.45874023 108.18725586 C-30.61714355 110.87407441 -32.37886117 112.88124805 -34.27734375 115.0859375 C-39.56888997 112.82303005 -41.97986509 108.64016847 -45.27734375 104.0859375 C-45.74253418 103.46187012 -46.20772461 102.83780273 -46.68701172 102.19482422 C-48.23681857 100.1097108 -49.75914839 98.00665274 -51.27734375 95.8984375 C-51.78273682 95.22151855 -52.28812988 94.54459961 -52.80883789 93.84716797 C-54.90278032 90.88096163 -56.21511414 88.89714485 -56.49609375 85.234375 C-54.60383207 80.34603232 -51.72131095 76.21438093 -48.77734375 71.8984375 C-47.57660661 70.11517714 -46.37856277 68.33009947 -45.18359375 66.54296875 C-44.65056641 65.75897705 -44.11753906 64.97498535 -43.56835938 64.16723633 C-42.12861088 62.02530905 -42.12861088 62.02530905 -41.27734375 59.0859375 C-40.61734375 59.0859375 -39.95734375 59.0859375 -39.27734375 59.0859375 C-39.09171875 58.3021875 -38.90609375 57.5184375 -38.71484375 56.7109375 C-37.02415442 52.44746006 -34.64496238 49.19633027 -31.96484375 45.5 C-30.06325658 42.77967391 -28.62922939 40.10779953 -27.27734375 37.0859375 C-26.61734375 37.0859375 -25.95734375 37.0859375 -25.27734375 37.0859375 C-25.09171875 36.3021875 -24.90609375 35.5184375 -24.71484375 34.7109375 C-23.02415442 30.44746006 -20.64496238 27.19633027 -17.96484375 23.5 C-16.06325658 20.77967391 -14.62922939 18.10779953 -13.27734375 15.0859375 C-12.61734375 15.0859375 -11.95734375 15.0859375 -11.27734375 15.0859375 C-10.93703125 14.126875 -10.93703125 14.126875 -10.58984375 13.1484375 C-5.03624786 0.19004709 -5.03624786 0.19004709 0 0 Z " fill="#141A14" transform="translate(113.27734375,15.9140625)"/>
<path d="M0 0 C0.99 0 1.98 0 3 0 C3.10546143 0.8343457 3.21092285 1.66869141 3.31958008 2.52832031 C5.86067077 22.65408849 5.86067077 22.65408849 8.625 42.75 C8.79092651 43.96091309 8.79092651 43.96091309 8.96020508 45.19628906 C9.48905614 48.7753583 9.96109776 50.94164663 12 54 C12.79434758 57.94118605 12.68379238 61.49781044 11.0078125 65.1796875 C8.86699398 68.19134746 7.26040258 69.78490737 3.55078125 70.41796875 C-0.73061153 70.24517711 -4.07747029 69.58053634 -7.125 66.4375 C-9.281611 62.48371316 -9.92001469 59.36240297 -9 55 C-8.51660156 53.9584375 -8.03320312 52.916875 -7.53515625 51.84375 C-5.58537885 47.47217445 -5.288988 43.16875526 -4.9375 38.4375 C-4.78366175 36.65473816 -4.62740035 34.8721838 -4.46875 33.08984375 C-4.39269531 32.22214355 -4.31664063 31.35444336 -4.23828125 30.46044922 C-3.80778053 26.01517644 -3.10705995 21.61803589 -2.4375 17.203125 C-1.85281394 12.92238776 -1.52843792 8.63819517 -1.24609375 4.328125 C-1 2 -1 2 0 0 Z " fill="#151B15" transform="translate(111,39)"/>
<path d="M0 0 C3 1 3 1 5.1875 3.25 C12.11419671 10.02277012 21.78937758 15.11752297 31.625 15.375 C35.52383294 15.19333395 39.2012408 14.38515553 42.98046875 13.4453125 C45.35590953 12.92152092 47.57562775 12.84358889 50 13 C45.87983791 17.12016209 38.70636633 17.95478315 33 18 C28.30370865 17.49845432 23.65556043 16.79118373 19 16 C19 15.34 19 14.68 19 14 C17.9275 13.71125 16.855 13.4225 15.75 13.125 C8.16243002 10.84872901 3.83176415 7.05851292 0 0 Z " fill="#D5BC58" transform="translate(79,178)"/>
<path d="M0 0 C0.66 0.33 1.32 0.66 2 1 C-0.97 4.3 -3.94 7.6 -7 11 C-7.66 10.67 -8.32 10.34 -9 10 C-6.03 6.7 -3.06 3.4 0 0 Z " fill="#DFBB2C" transform="translate(88,119)"/>
<path d="M0 0 C-2.5482148 2.5482148 -4.51352218 3.12838054 -8 4 C-11.375 3.625 -11.375 3.625 -14 3 C-14 2.67 -14 2.34 -14 2 C-4.58997722 -0.29612756 -4.58997722 -0.29612756 0 0 Z " fill="#DFBD37" transform="translate(129,191)"/>
</svg>
