<svg width="24px" height="24px" viewBox="0 0 692 692" fill="none" xmlns="http://www.w3.org/2000/svg">
<g clip-path="url(#clip0_6685_888)">
<path d="M345.938 614.275C337.315 614.275 329.387 610.107 324.494 603.067L131.372 354.272L130.861 353.458C125.546 344.982 125.546 334.034 130.861 325.566L329.283 9.21601C332.918 3.43472 339.136 0 345.938 0C352.741 0 358.959 3.44212 362.579 9.2012L561.016 325.558C566.33 334.027 566.33 344.975 561.016 353.451L560.505 354.265L559.913 355.027L367.383 603.06C362.49 610.1 354.57 614.267 345.938 614.267V614.275ZM168.169 338.72L345.931 567.728L523.693 338.72L345.938 55.3183L168.169 338.72ZM528.289 346.048C528.289 346.048 528.304 346.07 528.304 346.078L528.289 346.048Z" fill="#000100"/>
<path d="M372.528 278.212L345.931 102.094L319.335 278.212C309.341 286.088 302.916 298.295 302.916 312.011C302.916 335.766 322.177 355.027 345.931 355.027C369.686 355.027 388.947 335.766 388.947 312.011C388.947 298.295 382.522 286.088 372.528 278.212Z" fill="#000100"/>
<path d="M345.939 691.999C434.404 691.999 506.12 620.284 506.12 531.819C506.12 443.353 434.404 371.638 345.939 371.638C257.473 371.638 185.758 443.353 185.758 531.819C185.758 620.284 257.473 691.999 345.939 691.999Z" fill="black"/>
</g>
<defs>
<clipPath id="clip0_6685_888">
<rect width="438.127" height="692" fill="white" transform="translate(126.871)"/>
</clipPath>
</defs>
</svg>
